<mxfile host="app.diagrams.net" agent="Mozilla/5.0 (Windows NT 10.0; Win64; x64) AppleWebKit/537.36 (KHTML, like Gecko) Chrome/131.0.0.0 Safari/537.36" version="24.9.1">
  <diagram name="Страница — 1" id="gURiVpze26o2hxipI9vg">
    <mxGraphModel dx="989" dy="615" grid="1" gridSize="10" guides="1" tooltips="1" connect="1" arrows="1" fold="1" page="1" pageScale="1" pageWidth="827" pageHeight="1169" math="0" shadow="0">
      <root>
        <mxCell id="0" />
        <mxCell id="1" parent="0" />
        <mxCell id="pqKgI7KabFkf1uZeCCtd-34" value="&lt;font style=&quot;font-size: 20px;&quot;&gt;DevBox&lt;/font&gt;&lt;div&gt;&lt;font face=&quot;Lucida Console&quot; style=&quot;font-size: 10px;&quot;&gt;python-dev-container&lt;/font&gt;&lt;/div&gt;" style="rounded=1;whiteSpace=wrap;html=1;fillColor=default;dashed=1;dashPattern=1 1;verticalAlign=top;align=center;labelBackgroundColor=default;" vertex="1" parent="1">
          <mxGeometry x="288" y="69" width="140" height="91" as="geometry" />
        </mxCell>
        <mxCell id="pqKgI7KabFkf1uZeCCtd-38" value="&lt;div&gt;&lt;span style=&quot;font-size: 20px;&quot;&gt;MinIO&lt;/span&gt;&lt;/div&gt;&lt;div&gt;&lt;font face=&quot;Lucida Console&quot;&gt;&lt;span style=&quot;font-size: 10px;&quot;&gt;minio&lt;/span&gt;&lt;/font&gt;&lt;/div&gt;" style="rounded=1;whiteSpace=wrap;html=1;fillColor=default;dashed=1;dashPattern=1 1;verticalAlign=top;align=center;" vertex="1" parent="1">
          <mxGeometry x="288" y="479" width="140" height="111" as="geometry" />
        </mxCell>
        <mxCell id="pqKgI7KabFkf1uZeCCtd-41" value="&lt;div&gt;&lt;span style=&quot;font-size: 20px;&quot;&gt;MLflow&lt;/span&gt;&lt;/div&gt;&lt;div&gt;&lt;font face=&quot;Lucida Console&quot;&gt;&lt;span style=&quot;font-size: 10px;&quot;&gt;mlflow&lt;/span&gt;&lt;/font&gt;&lt;/div&gt;" style="rounded=1;whiteSpace=wrap;html=1;fillColor=default;dashed=1;dashPattern=1 1;verticalAlign=top;align=center;" vertex="1" parent="1">
          <mxGeometry x="288" y="215" width="140" height="80" as="geometry" />
        </mxCell>
        <mxCell id="pqKgI7KabFkf1uZeCCtd-42" value="&lt;div&gt;&lt;span style=&quot;font-size: 20px;&quot;&gt;PostgreSQL&lt;/span&gt;&lt;/div&gt;&lt;div&gt;&lt;font face=&quot;Lucida Console&quot;&gt;&lt;span style=&quot;font-size: 10px;&quot;&gt;postgres&lt;/span&gt;&lt;/font&gt;&lt;/div&gt;" style="rounded=1;whiteSpace=wrap;html=1;fillColor=default;dashed=1;dashPattern=1 1;verticalAlign=top;align=center;" vertex="1" parent="1">
          <mxGeometry x="288" y="342" width="140" height="116" as="geometry" />
        </mxCell>
        <mxCell id="pqKgI7KabFkf1uZeCCtd-9" value="&lt;font style=&quot;font-size: 20px;&quot;&gt;Host&lt;/font&gt;" style="rounded=0;whiteSpace=wrap;html=1;verticalAlign=top;fillColor=default;fillStyle=auto;dashed=1;strokeColor=#737373;labelBackgroundColor=default;" vertex="1" parent="1">
          <mxGeometry y="70" width="260" height="330" as="geometry" />
        </mxCell>
        <mxCell id="pqKgI7KabFkf1uZeCCtd-24" style="edgeStyle=orthogonalEdgeStyle;rounded=0;orthogonalLoop=1;jettySize=auto;html=1;exitX=0.5;exitY=1;exitDx=0;exitDy=0;entryX=0;entryY=0.5;entryDx=0;entryDy=0;endArrow=none;endFill=0;strokeColor=#878787;" edge="1" parent="1" target="pqKgI7KabFkf1uZeCCtd-22">
          <mxGeometry relative="1" as="geometry">
            <mxPoint x="32" y="140" as="sourcePoint" />
            <Array as="points">
              <mxPoint x="32" y="156" />
            </Array>
          </mxGeometry>
        </mxCell>
        <mxCell id="pqKgI7KabFkf1uZeCCtd-10" value="/" style="rounded=0;whiteSpace=wrap;html=1;fillColor=none;strokeColor=none;" vertex="1" parent="1">
          <mxGeometry x="20" y="120" width="30" height="20" as="geometry" />
        </mxCell>
        <mxCell id="pqKgI7KabFkf1uZeCCtd-36" style="rounded=0;orthogonalLoop=1;jettySize=auto;html=1;exitX=1;exitY=0.5;exitDx=0;exitDy=0;entryX=0;entryY=0.5;entryDx=0;entryDy=0;edgeStyle=elbowEdgeStyle;endArrow=halfCircle;endFill=0;startArrow=halfCircle;startFill=0;" edge="1" parent="1" source="pqKgI7KabFkf1uZeCCtd-12" target="pqKgI7KabFkf1uZeCCtd-35">
          <mxGeometry relative="1" as="geometry">
            <Array as="points">
              <mxPoint x="270" y="170" />
            </Array>
          </mxGeometry>
        </mxCell>
        <mxCell id="pqKgI7KabFkf1uZeCCtd-12" value="workspace" style="rounded=0;whiteSpace=wrap;html=1;fillColor=none;strokeColor=none;align=left;" vertex="1" parent="1">
          <mxGeometry x="106" y="194" width="62" height="20" as="geometry" />
        </mxCell>
        <mxCell id="pqKgI7KabFkf1uZeCCtd-27" style="edgeStyle=orthogonalEdgeStyle;rounded=0;orthogonalLoop=1;jettySize=auto;html=1;exitX=0;exitY=0.5;exitDx=0;exitDy=0;entryX=0.5;entryY=1;entryDx=0;entryDy=0;endArrow=none;endFill=0;strokeColor=#878787;" edge="1" parent="1" source="pqKgI7KabFkf1uZeCCtd-17" target="pqKgI7KabFkf1uZeCCtd-22">
          <mxGeometry relative="1" as="geometry" />
        </mxCell>
        <mxCell id="pqKgI7KabFkf1uZeCCtd-48" style="edgeStyle=elbowEdgeStyle;shape=connector;rounded=0;orthogonalLoop=1;jettySize=auto;html=1;exitX=1;exitY=0.5;exitDx=0;exitDy=0;entryX=0;entryY=0.5;entryDx=0;entryDy=0;strokeColor=default;align=center;verticalAlign=middle;fontFamily=Helvetica;fontSize=11;fontColor=default;labelBackgroundColor=default;startArrow=halfCircle;startFill=0;endArrow=halfCircle;endFill=0;" edge="1" parent="1" source="pqKgI7KabFkf1uZeCCtd-17" target="pqKgI7KabFkf1uZeCCtd-46">
          <mxGeometry relative="1" as="geometry">
            <Array as="points">
              <mxPoint x="270" y="240" />
            </Array>
          </mxGeometry>
        </mxCell>
        <mxCell id="pqKgI7KabFkf1uZeCCtd-17" value="mlflow/data" style="rounded=0;whiteSpace=wrap;html=1;fillColor=none;strokeColor=none;align=left;" vertex="1" parent="1">
          <mxGeometry x="106" y="224" width="72" height="20" as="geometry" />
        </mxCell>
        <mxCell id="pqKgI7KabFkf1uZeCCtd-28" style="edgeStyle=orthogonalEdgeStyle;rounded=0;orthogonalLoop=1;jettySize=auto;html=1;exitX=0;exitY=0.5;exitDx=0;exitDy=0;entryX=0.5;entryY=1;entryDx=0;entryDy=0;endArrow=none;endFill=0;strokeColor=#878787;" edge="1" parent="1" source="pqKgI7KabFkf1uZeCCtd-18" target="pqKgI7KabFkf1uZeCCtd-22">
          <mxGeometry relative="1" as="geometry" />
        </mxCell>
        <mxCell id="pqKgI7KabFkf1uZeCCtd-50" style="edgeStyle=elbowEdgeStyle;shape=connector;rounded=0;orthogonalLoop=1;jettySize=auto;html=1;exitX=1;exitY=0.5;exitDx=0;exitDy=0;entryX=0;entryY=0.5;entryDx=0;entryDy=0;strokeColor=default;align=center;verticalAlign=middle;fontFamily=Helvetica;fontSize=11;fontColor=default;labelBackgroundColor=default;startArrow=halfCircle;startFill=0;endArrow=halfCircle;endFill=0;" edge="1" parent="1" source="pqKgI7KabFkf1uZeCCtd-18" target="pqKgI7KabFkf1uZeCCtd-49">
          <mxGeometry relative="1" as="geometry">
            <mxPoint x="228" y="239" as="sourcePoint" />
            <Array as="points">
              <mxPoint x="270" y="295" />
            </Array>
          </mxGeometry>
        </mxCell>
        <mxCell id="pqKgI7KabFkf1uZeCCtd-18" value="postgres/mlflow_data" style="rounded=0;whiteSpace=wrap;html=1;fillColor=none;strokeColor=none;align=left;" vertex="1" parent="1">
          <mxGeometry x="106" y="279" width="122" height="20" as="geometry" />
        </mxCell>
        <mxCell id="pqKgI7KabFkf1uZeCCtd-31" style="edgeStyle=orthogonalEdgeStyle;rounded=0;orthogonalLoop=1;jettySize=auto;html=1;exitX=0;exitY=0.5;exitDx=0;exitDy=0;entryX=0.5;entryY=1;entryDx=0;entryDy=0;endArrow=none;endFill=0;strokeColor=#878787;" edge="1" parent="1" source="pqKgI7KabFkf1uZeCCtd-19" target="pqKgI7KabFkf1uZeCCtd-20">
          <mxGeometry relative="1" as="geometry" />
        </mxCell>
        <mxCell id="pqKgI7KabFkf1uZeCCtd-54" style="edgeStyle=elbowEdgeStyle;shape=connector;rounded=0;orthogonalLoop=1;jettySize=auto;html=1;exitX=1;exitY=0.5;exitDx=0;exitDy=0;entryX=0;entryY=0.5;entryDx=0;entryDy=0;strokeColor=default;align=center;verticalAlign=middle;fontFamily=Helvetica;fontSize=11;fontColor=default;labelBackgroundColor=default;startArrow=halfCircle;startFill=0;endArrow=halfCircle;endFill=0;" edge="1" parent="1" source="pqKgI7KabFkf1uZeCCtd-19" target="pqKgI7KabFkf1uZeCCtd-52">
          <mxGeometry relative="1" as="geometry">
            <Array as="points">
              <mxPoint x="260" y="400" />
            </Array>
          </mxGeometry>
        </mxCell>
        <mxCell id="pqKgI7KabFkf1uZeCCtd-19" value="/config" style="rounded=0;whiteSpace=wrap;html=1;fillColor=none;strokeColor=none;align=left;" vertex="1" parent="1">
          <mxGeometry x="156" y="339" width="42" height="20" as="geometry" />
        </mxCell>
        <mxCell id="pqKgI7KabFkf1uZeCCtd-29" style="edgeStyle=orthogonalEdgeStyle;rounded=0;orthogonalLoop=1;jettySize=auto;html=1;exitX=0;exitY=0.5;exitDx=0;exitDy=0;entryX=0.5;entryY=1;entryDx=0;entryDy=0;endArrow=none;endFill=0;strokeColor=#878787;" edge="1" parent="1" source="pqKgI7KabFkf1uZeCCtd-20" target="pqKgI7KabFkf1uZeCCtd-22">
          <mxGeometry relative="1" as="geometry" />
        </mxCell>
        <mxCell id="pqKgI7KabFkf1uZeCCtd-20" value="MinIO" style="rounded=0;whiteSpace=wrap;html=1;fillColor=none;strokeColor=none;align=left;" vertex="1" parent="1">
          <mxGeometry x="106" y="309" width="42" height="20" as="geometry" />
        </mxCell>
        <mxCell id="pqKgI7KabFkf1uZeCCtd-33" style="edgeStyle=orthogonalEdgeStyle;rounded=0;orthogonalLoop=1;jettySize=auto;html=1;exitX=0;exitY=0.5;exitDx=0;exitDy=0;entryX=0.5;entryY=1;entryDx=0;entryDy=0;endArrow=none;endFill=0;strokeColor=#878787;" edge="1" parent="1" source="pqKgI7KabFkf1uZeCCtd-21" target="pqKgI7KabFkf1uZeCCtd-20">
          <mxGeometry relative="1" as="geometry" />
        </mxCell>
        <mxCell id="pqKgI7KabFkf1uZeCCtd-55" style="edgeStyle=elbowEdgeStyle;shape=connector;rounded=0;orthogonalLoop=1;jettySize=auto;html=1;exitX=1;exitY=0.5;exitDx=0;exitDy=0;entryX=0;entryY=0.5;entryDx=0;entryDy=0;strokeColor=default;align=center;verticalAlign=middle;fontFamily=Helvetica;fontSize=11;fontColor=default;labelBackgroundColor=default;startArrow=halfCircle;startFill=0;endArrow=halfCircle;endFill=0;" edge="1" parent="1" source="pqKgI7KabFkf1uZeCCtd-21" target="pqKgI7KabFkf1uZeCCtd-51">
          <mxGeometry relative="1" as="geometry" />
        </mxCell>
        <mxCell id="pqKgI7KabFkf1uZeCCtd-21" value="/data" style="rounded=0;whiteSpace=wrap;html=1;fillColor=none;strokeColor=none;align=left;" vertex="1" parent="1">
          <mxGeometry x="156" y="369" width="32" height="20" as="geometry" />
        </mxCell>
        <mxCell id="pqKgI7KabFkf1uZeCCtd-26" style="edgeStyle=orthogonalEdgeStyle;rounded=0;orthogonalLoop=1;jettySize=auto;html=1;exitX=0.5;exitY=1;exitDx=0;exitDy=0;entryX=0;entryY=0.5;entryDx=0;entryDy=0;endArrow=none;endFill=0;strokeColor=#878787;" edge="1" parent="1" source="pqKgI7KabFkf1uZeCCtd-22" target="pqKgI7KabFkf1uZeCCtd-12">
          <mxGeometry relative="1" as="geometry" />
        </mxCell>
        <mxCell id="pqKgI7KabFkf1uZeCCtd-22" value="infra/" style="rounded=0;whiteSpace=wrap;html=1;fillColor=none;strokeColor=none;align=left;" vertex="1" parent="1">
          <mxGeometry x="37" y="146" width="32" height="20" as="geometry" />
        </mxCell>
        <mxCell id="pqKgI7KabFkf1uZeCCtd-65" style="edgeStyle=elbowEdgeStyle;shape=connector;rounded=0;orthogonalLoop=1;jettySize=auto;elbow=horizontal;html=1;exitX=0.5;exitY=1;exitDx=0;exitDy=0;entryX=0.5;entryY=0;entryDx=0;entryDy=0;strokeColor=default;align=center;verticalAlign=middle;fontFamily=Helvetica;fontSize=11;fontColor=default;labelBackgroundColor=default;startArrow=oval;startFill=1;endArrow=open;endFill=0;" edge="1" parent="1" source="pqKgI7KabFkf1uZeCCtd-34" target="pqKgI7KabFkf1uZeCCtd-41">
          <mxGeometry relative="1" as="geometry" />
        </mxCell>
        <mxCell id="pqKgI7KabFkf1uZeCCtd-68" value="&lt;font style=&quot;font-size: 10px;&quot;&gt;Результаты экспериментов&lt;/font&gt;&lt;div&gt;&lt;font style=&quot;font-size: 10px;&quot;&gt;Артефакты модели&lt;/font&gt;&lt;/div&gt;" style="edgeLabel;html=1;align=center;verticalAlign=middle;resizable=0;points=[];fontFamily=Helvetica;fontSize=11;fontColor=default;labelBackgroundColor=none;labelBorderColor=none;" vertex="1" connectable="0" parent="pqKgI7KabFkf1uZeCCtd-65">
          <mxGeometry x="0.1755" relative="1" as="geometry">
            <mxPoint x="70" y="-9" as="offset" />
          </mxGeometry>
        </mxCell>
        <mxCell id="pqKgI7KabFkf1uZeCCtd-69" style="edgeStyle=elbowEdgeStyle;shape=connector;rounded=0;orthogonalLoop=1;jettySize=auto;elbow=vertical;html=1;exitX=1;exitY=0.5;exitDx=0;exitDy=0;entryX=1;entryY=0.5;entryDx=0;entryDy=0;strokeColor=default;align=center;verticalAlign=middle;fontFamily=Helvetica;fontSize=11;fontColor=default;labelBackgroundColor=default;startArrow=oval;startFill=1;endArrow=open;endFill=0;jumpStyle=gap;" edge="1" parent="1" source="pqKgI7KabFkf1uZeCCtd-34" target="pqKgI7KabFkf1uZeCCtd-51">
          <mxGeometry relative="1" as="geometry">
            <Array as="points">
              <mxPoint x="510" y="340" />
            </Array>
          </mxGeometry>
        </mxCell>
        <mxCell id="pqKgI7KabFkf1uZeCCtd-70" value="&lt;font style=&quot;font-size: 10px;&quot;&gt;Данные&lt;/font&gt;" style="edgeLabel;html=1;align=center;verticalAlign=middle;resizable=0;points=[];fontFamily=Helvetica;fontSize=11;fontColor=default;labelBackgroundColor=none;textShadow=0;rotation=0;" vertex="1" connectable="0" parent="pqKgI7KabFkf1uZeCCtd-69">
          <mxGeometry x="0.0571" relative="1" as="geometry">
            <mxPoint x="-40" y="-306" as="offset" />
          </mxGeometry>
        </mxCell>
        <mxCell id="pqKgI7KabFkf1uZeCCtd-4" value="" style="shape=image;html=1;verticalAlign=top;verticalLabelPosition=bottom;labelBackgroundColor=#ffffff;imageAspect=0;aspect=fixed;image=https://cdn1.iconfinder.com/data/icons/social-media-2106/24/social_media_social_media_logo_docker-128.png" vertex="1" parent="1">
          <mxGeometry x="398" y="127.75" width="24.5" height="24.5" as="geometry" />
        </mxCell>
        <mxCell id="pqKgI7KabFkf1uZeCCtd-35" value="/workspace" style="rounded=0;whiteSpace=wrap;html=1;fillColor=none;strokeColor=none;align=left;" vertex="1" parent="1">
          <mxGeometry x="302" y="130" width="66" height="20" as="geometry" />
        </mxCell>
        <mxCell id="pqKgI7KabFkf1uZeCCtd-39" value="" style="shape=image;html=1;verticalAlign=top;verticalLabelPosition=bottom;labelBackgroundColor=#ffffff;imageAspect=0;aspect=fixed;image=https://cdn1.iconfinder.com/data/icons/social-media-2106/24/social_media_social_media_logo_docker-128.png" vertex="1" parent="1">
          <mxGeometry x="398" y="509.5" width="24.5" height="24.5" as="geometry" />
        </mxCell>
        <mxCell id="pqKgI7KabFkf1uZeCCtd-73" style="edgeStyle=elbowEdgeStyle;shape=connector;rounded=0;orthogonalLoop=1;jettySize=auto;elbow=vertical;html=1;exitX=1;exitY=0.5;exitDx=0;exitDy=0;strokeColor=default;align=center;verticalAlign=middle;fontFamily=Helvetica;fontSize=11;fontColor=default;labelBackgroundColor=default;startArrow=oval;startFill=1;endArrow=open;endFill=0;entryX=1;entryY=0.5;entryDx=0;entryDy=0;" edge="1" parent="1" source="pqKgI7KabFkf1uZeCCtd-41" target="pqKgI7KabFkf1uZeCCtd-51">
          <mxGeometry relative="1" as="geometry">
            <Array as="points">
              <mxPoint x="470" y="420" />
              <mxPoint x="450" y="398" />
            </Array>
          </mxGeometry>
        </mxCell>
        <mxCell id="pqKgI7KabFkf1uZeCCtd-74" value="&lt;font style=&quot;font-size: 10px;&quot;&gt;Артефакты&amp;nbsp;&lt;/font&gt;&lt;span style=&quot;font-size: 10px; background-color: initial;&quot;&gt;модели&lt;/span&gt;" style="edgeLabel;html=1;align=center;verticalAlign=middle;resizable=0;points=[];fontFamily=Helvetica;fontSize=11;fontColor=default;labelBackgroundColor=none;rotation=90;" vertex="1" connectable="0" parent="pqKgI7KabFkf1uZeCCtd-73">
          <mxGeometry x="-0.2282" relative="1" as="geometry">
            <mxPoint x="10" as="offset" />
          </mxGeometry>
        </mxCell>
        <mxCell id="pqKgI7KabFkf1uZeCCtd-62" style="edgeStyle=elbowEdgeStyle;shape=connector;rounded=0;orthogonalLoop=1;jettySize=auto;elbow=vertical;html=1;exitX=0.5;exitY=0;exitDx=0;exitDy=0;entryX=0.5;entryY=1;entryDx=0;entryDy=0;strokeColor=default;align=center;verticalAlign=middle;fontFamily=Helvetica;fontSize=11;fontColor=default;labelBackgroundColor=default;startArrow=open;startFill=0;endArrow=oval;endFill=1;" edge="1" parent="1" source="pqKgI7KabFkf1uZeCCtd-42" target="pqKgI7KabFkf1uZeCCtd-41">
          <mxGeometry relative="1" as="geometry" />
        </mxCell>
        <mxCell id="pqKgI7KabFkf1uZeCCtd-67" value="&lt;font style=&quot;font-size: 10px;&quot;&gt;Результаты&lt;/font&gt;&lt;div&gt;&lt;font style=&quot;font-size: 10px;&quot;&gt;экспериментов&lt;/font&gt;&lt;/div&gt;" style="edgeLabel;html=1;align=center;verticalAlign=middle;resizable=0;points=[];fontFamily=Helvetica;fontSize=11;fontColor=default;labelBackgroundColor=none;" vertex="1" connectable="0" parent="pqKgI7KabFkf1uZeCCtd-62">
          <mxGeometry x="0.102" y="-1" relative="1" as="geometry">
            <mxPoint x="51" y="3" as="offset" />
          </mxGeometry>
        </mxCell>
        <mxCell id="pqKgI7KabFkf1uZeCCtd-43" value="" style="shape=image;html=1;verticalAlign=top;verticalLabelPosition=bottom;labelBackgroundColor=#ffffff;imageAspect=0;aspect=fixed;image=https://cdn1.iconfinder.com/data/icons/social-media-2106/24/social_media_social_media_logo_docker-128.png" vertex="1" parent="1">
          <mxGeometry x="398" y="259" width="24.5" height="24.5" as="geometry" />
        </mxCell>
        <mxCell id="pqKgI7KabFkf1uZeCCtd-45" value="" style="shape=image;html=1;verticalAlign=top;verticalLabelPosition=bottom;labelBackgroundColor=#ffffff;imageAspect=0;aspect=fixed;image=https://cdn1.iconfinder.com/data/icons/social-media-2106/24/social_media_social_media_logo_docker-128.png" vertex="1" parent="1">
          <mxGeometry x="398" y="391" width="24.5" height="24.5" as="geometry" />
        </mxCell>
        <mxCell id="pqKgI7KabFkf1uZeCCtd-46" value="/mlflow" style="rounded=0;whiteSpace=wrap;html=1;fillColor=none;strokeColor=none;align=left;" vertex="1" parent="1">
          <mxGeometry x="302" y="263.5" width="66" height="20" as="geometry" />
        </mxCell>
        <mxCell id="pqKgI7KabFkf1uZeCCtd-49" value="/var/lib/postgresql/data" style="rounded=0;whiteSpace=wrap;html=1;fillColor=none;strokeColor=none;align=left;" vertex="1" parent="1">
          <mxGeometry x="302" y="421" width="66" height="20" as="geometry" />
        </mxCell>
        <mxCell id="pqKgI7KabFkf1uZeCCtd-51" value="/data" style="rounded=0;whiteSpace=wrap;html=1;fillColor=none;strokeColor=none;align=left;" vertex="1" parent="1">
          <mxGeometry x="302" y="558" width="38" height="20" as="geometry" />
        </mxCell>
        <mxCell id="pqKgI7KabFkf1uZeCCtd-52" value="/root/.minio" style="rounded=0;whiteSpace=wrap;html=1;fillColor=none;strokeColor=none;align=left;" vertex="1" parent="1">
          <mxGeometry x="302" y="534" width="66" height="20" as="geometry" />
        </mxCell>
        <mxCell id="pqKgI7KabFkf1uZeCCtd-84" style="edgeStyle=elbowEdgeStyle;shape=connector;rounded=0;orthogonalLoop=1;jettySize=auto;html=1;exitX=1;exitY=0.5;exitDx=0;exitDy=0;entryX=0;entryY=0.5;entryDx=0;entryDy=0;strokeColor=default;align=center;verticalAlign=middle;fontFamily=Helvetica;fontSize=11;fontColor=default;labelBackgroundColor=default;startArrow=halfCircle;startFill=0;endArrow=halfCircle;endFill=0;" edge="1" parent="1" source="pqKgI7KabFkf1uZeCCtd-76" target="pqKgI7KabFkf1uZeCCtd-81">
          <mxGeometry relative="1" as="geometry" />
        </mxCell>
        <mxCell id="pqKgI7KabFkf1uZeCCtd-76" value="X" style="rounded=0;whiteSpace=wrap;html=1;fillColor=none;strokeColor=none;align=left;fontColor=none;noLabel=1;" vertex="1" parent="1">
          <mxGeometry x="131" y="461" width="14" height="20" as="geometry" />
        </mxCell>
        <mxCell id="pqKgI7KabFkf1uZeCCtd-78" value="&lt;font&gt;Точки монтирования&lt;/font&gt;" style="rounded=0;whiteSpace=wrap;html=1;fillColor=none;strokeColor=none;align=left;" vertex="1" parent="1">
          <mxGeometry x="7" y="459" width="133" height="20" as="geometry" />
        </mxCell>
        <mxCell id="pqKgI7KabFkf1uZeCCtd-79" value="&lt;font&gt;Потоки данных&lt;/font&gt;" style="rounded=0;whiteSpace=wrap;html=1;fillColor=none;strokeColor=none;align=left;" vertex="1" parent="1">
          <mxGeometry x="7" y="489.5" width="103" height="20" as="geometry" />
        </mxCell>
        <mxCell id="pqKgI7KabFkf1uZeCCtd-80" value="X" style="rounded=0;whiteSpace=wrap;html=1;fillColor=none;strokeColor=none;align=left;fontColor=none;noLabel=1;" vertex="1" parent="1">
          <mxGeometry x="131" y="491.5" width="14" height="20" as="geometry" />
        </mxCell>
        <mxCell id="pqKgI7KabFkf1uZeCCtd-81" value="X" style="rounded=0;whiteSpace=wrap;html=1;fillColor=none;strokeColor=none;align=left;fontColor=none;noLabel=1;" vertex="1" parent="1">
          <mxGeometry x="196" y="461" width="14" height="20" as="geometry" />
        </mxCell>
        <mxCell id="pqKgI7KabFkf1uZeCCtd-87" style="edgeStyle=elbowEdgeStyle;shape=connector;rounded=0;orthogonalLoop=1;jettySize=auto;elbow=vertical;html=1;exitX=0;exitY=0.5;exitDx=0;exitDy=0;entryX=1;entryY=0.5;entryDx=0;entryDy=0;strokeColor=default;align=center;verticalAlign=middle;fontFamily=Helvetica;fontSize=11;fontColor=default;labelBackgroundColor=default;startArrow=open;startFill=0;endArrow=oval;endFill=1;" edge="1" parent="1" source="pqKgI7KabFkf1uZeCCtd-82" target="pqKgI7KabFkf1uZeCCtd-80">
          <mxGeometry relative="1" as="geometry" />
        </mxCell>
        <mxCell id="pqKgI7KabFkf1uZeCCtd-82" value="X" style="rounded=0;whiteSpace=wrap;html=1;fillColor=none;strokeColor=none;align=left;fontColor=none;noLabel=1;" vertex="1" parent="1">
          <mxGeometry x="196" y="491.5" width="14" height="20" as="geometry" />
        </mxCell>
      </root>
    </mxGraphModel>
  </diagram>
</mxfile>
